<svg width="20" height="20" viewBox="0 0 20 20" fill="none" xmlns="http://www.w3.org/2000/svg">
<path d="M1.66663 10.4168C1.66663 7.8835 3.71663 5.8335 6.24996 5.8335H15C16.8416 5.8335 18.3333 7.32516 18.3333 9.16683C18.3333 11.0085 16.8416 12.5002 15 12.5002H7.91663C6.76663 12.5002 5.83329 11.5668 5.83329 10.4168C5.83329 9.26683 6.76663 8.3335 7.91663 8.3335H14.1666V10.0002H7.84163C7.38329 10.0002 7.38329 10.8335 7.84163 10.8335H15C15.9166 10.8335 16.6666 10.0835 16.6666 9.16683C16.6666 8.25016 15.9166 7.50016 15 7.50016H6.24996C4.64163 7.50016 3.33329 8.8085 3.33329 10.4168C3.33329 12.0252 4.64163 13.3335 6.24996 13.3335H14.1666V15.0002H6.24996C3.71663 15.0002 1.66663 12.9502 1.66663 10.4168Z" fill="currentColor"/>
</svg>
