<svg width="20" height="20" viewBox="0 0 20 20" fill="none" xmlns="http://www.w3.org/2000/svg">
<path d="M13.2071 5.70711C13.5976 5.31658 13.5976 4.68342 13.2071 4.29289C12.8166 3.90237 12.1834 3.90237 11.7929 4.29289L13.2071 5.70711ZM7.5 10L6.79289 9.29289C6.40237 9.68342 6.40237 10.3166 6.79289 10.7071L7.5 10ZM11.7929 15.7071C12.1834 16.0976 12.8166 16.0976 13.2071 15.7071C13.5976 15.3166 13.5976 14.6834 13.2071 14.2929L11.7929 15.7071ZM11.7929 4.29289L6.79289 9.29289L8.20711 10.7071L13.2071 5.70711L11.7929 4.29289ZM6.79289 10.7071L11.7929 15.7071L13.2071 14.2929L8.20711 9.29289L6.79289 10.7071Z" fill="#003A5D"/>
</svg>
