<svg width="20" height="20" viewBox="0 0 20 20" fill="none" xmlns="http://www.w3.org/2000/svg">
<path d="M10 6.66683C10.9167 6.66683 11.6667 5.91683 11.6667 5.00016C11.6667 4.0835 10.9167 3.3335 10 3.3335C9.08337 3.3335 8.33337 4.0835 8.33337 5.00016C8.33337 5.91683 9.08337 6.66683 10 6.66683ZM10 8.3335C9.08337 8.3335 8.33337 9.0835 8.33337 10.0002C8.33337 10.9168 9.08337 11.6668 10 11.6668C10.9167 11.6668 11.6667 10.9168 11.6667 10.0002C11.6667 9.0835 10.9167 8.3335 10 8.3335ZM10 13.3335C9.08337 13.3335 8.33337 14.0835 8.33337 15.0002C8.33337 15.9168 9.08337 16.6668 10 16.6668C10.9167 16.6668 11.6667 15.9168 11.6667 15.0002C11.6667 14.0835 10.9167 13.3335 10 13.3335Z" fill="#0047AB"/>
</svg>
