<svg width="20" height="20" viewBox="0 0 20 20" fill="none" xmlns="http://www.w3.org/2000/svg">
<path d="M5.70723 6.79289C5.3167 6.40237 4.68354 6.40237 4.29302 6.79289C3.90249 7.18342 3.90249 7.81658 4.29302 8.20711L5.70723 6.79289ZM10.0001 12.5L9.29302 13.2071C9.68354 13.5976 10.3167 13.5976 10.7072 13.2071L10.0001 12.5ZM15.7072 8.20711C16.0978 7.81658 16.0978 7.18342 15.7072 6.79289C15.3167 6.40237 14.6835 6.40237 14.293 6.79289L15.7072 8.20711ZM4.29302 8.20711L9.29302 13.2071L10.7072 11.7929L5.70723 6.79289L4.29302 8.20711ZM10.7072 13.2071L15.7072 8.20711L14.293 6.79289L9.29302 11.7929L10.7072 13.2071Z" fill="currentColor"/>
</svg>
