<svg width="20" height="20" viewBox="0 0 20 20" fill="none" xmlns="http://www.w3.org/2000/svg">
<path d="M3.24996 10.0002C3.24996 8.57516 4.40829 7.41683 5.83329 7.41683H9.16663V5.8335H5.83329C3.53329 5.8335 1.66663 7.70016 1.66663 10.0002C1.66663 12.3002 3.53329 14.1668 5.83329 14.1668H9.16663V12.5835H5.83329C4.40829 12.5835 3.24996 11.4252 3.24996 10.0002ZM6.66663 10.8335H13.3333V9.16683H6.66663V10.8335ZM14.1666 5.8335H10.8333V7.41683H14.1666C15.5916 7.41683 16.75 8.57516 16.75 10.0002C16.75 11.4252 15.5916 12.5835 14.1666 12.5835H10.8333V14.1668H14.1666C16.4666 14.1668 18.3333 12.3002 18.3333 10.0002C18.3333 7.70016 16.4666 5.8335 14.1666 5.8335Z" fill="#0047AB"/>
</svg>
