<svg width="20" height="20" viewBox="0 0 20 20" fill="none" xmlns="http://www.w3.org/2000/svg">
<path d="M15.8333 2.50016H12.35C12 1.5335 11.0833 0.833496 10 0.833496C8.91667 0.833496 8 1.5335 7.65 2.50016H4.16667C3.25 2.50016 2.5 3.25016 2.5 4.16683V15.8335C2.5 16.7502 3.25 17.5002 4.16667 17.5002H15.8333C16.75 17.5002 17.5 16.7502 17.5 15.8335V4.16683C17.5 3.25016 16.75 2.50016 15.8333 2.50016ZM10 2.50016C10.4583 2.50016 10.8333 2.87516 10.8333 3.3335C10.8333 3.79183 10.4583 4.16683 10 4.16683C9.54167 4.16683 9.16667 3.79183 9.16667 3.3335C9.16667 2.87516 9.54167 2.50016 10 2.50016ZM8.33333 14.1668L5 10.8335L6.175 9.6585L8.33333 11.8085L13.825 6.31683L15 7.50016L8.33333 14.1668Z" fill="#0047AB"/>
</svg>
