<svg width="20" height="20" viewBox="0 0 20 20" fill="none" xmlns="http://www.w3.org/2000/svg">
<path d="M14.2929 13.2071C14.6834 13.5976 15.3166 13.5976 15.7071 13.2071C16.0976 12.8166 16.0976 12.1834 15.7071 11.7929L14.2929 13.2071ZM10 7.5L10.7071 6.79289C10.3166 6.40237 9.68342 6.40237 9.29289 6.79289L10 7.5ZM4.29289 11.7929C3.90237 12.1834 3.90237 12.8166 4.29289 13.2071C4.68342 13.5976 5.31658 13.5976 5.70711 13.2071L4.29289 11.7929ZM15.7071 11.7929L10.7071 6.79289L9.29289 8.20711L14.2929 13.2071L15.7071 11.7929ZM9.29289 6.79289L4.29289 11.7929L5.70711 13.2071L10.7071 8.20711L9.29289 6.79289Z" fill="#003A5D"/>
</svg>
