<svg width="20" height="20" viewBox="0 0 20 20" fill="none" xmlns="http://www.w3.org/2000/svg">
<path d="M11.4236 14.8003C10.4285 15.0669 9.37682 15.1314 8.40137 14.8003C7.42593 14.4692 6.57058 13.8563 5.94349 13.039C5.3164 12.2218 4.94573 11.2369 4.87836 10.209C4.81098 9.18113 5.04993 8.15633 5.56499 7.26423C6.08004 6.37213 6.84807 5.65279 7.77195 5.19718C8.69583 4.74158 9.73406 4.57016 10.7554 4.70462C11.7767 4.83908 12.7352 5.27336 13.5096 5.95256C14.2841 6.63176 14.8398 7.52537 15.1064 8.52038" stroke="#0047AB" stroke-width="1.5" stroke-linecap="round"/>
<path d="M12.3723 7.3322C11.9722 7.22499 11.561 7.46243 11.4538 7.86253C11.3466 8.26263 11.584 8.67388 11.9841 8.78109L12.3723 7.3322ZM17.2328 5.75075C17.34 5.35066 17.1026 4.9394 16.7025 4.8322C16.3024 4.72499 15.8911 4.96243 15.7839 5.36253L17.2328 5.75075ZM15.5933 8.9717L15.3992 9.69615C15.7993 9.80335 16.2105 9.56592 16.3177 9.16582L15.5933 8.9717ZM11.9841 8.78109L15.3992 9.69615L15.7874 8.24726L12.3723 7.3322L11.9841 8.78109ZM16.3177 9.16582L17.2328 5.75075L15.7839 5.36253L14.8688 8.77759L16.3177 9.16582Z" fill="#0047AB"/>
</svg>
