<svg width="20" height="20" viewBox="0 0 20 20" fill="none" xmlns="http://www.w3.org/2000/svg">
<path d="M6.79289 14.2929C6.40237 14.6834 6.40237 15.3166 6.79289 15.7071C7.18342 16.0976 7.81658 16.0976 8.20711 15.7071L6.79289 14.2929ZM12.5 10L13.2071 10.7071C13.5976 10.3166 13.5976 9.68342 13.2071 9.29289L12.5 10ZM8.20711 4.29289C7.81658 3.90237 7.18342 3.90237 6.79289 4.29289C6.40237 4.68342 6.40237 5.31658 6.79289 5.70711L8.20711 4.29289ZM8.20711 15.7071L13.2071 10.7071L11.7929 9.29289L6.79289 14.2929L8.20711 15.7071ZM13.2071 9.29289L8.20711 4.29289L6.79289 5.70711L11.7929 10.7071L13.2071 9.29289Z" fill="#003A5D"/>
</svg>
